<svg width="24" height="24" viewBox="0 0 24 24" fill="none" xmlns="http://www.w3.org/2000/svg">
<path d="M16.0001 23.03C15.4501 23.03 15.0001 22.58 15.0001 22.03V18.16C15.0301 17.74 14.9801 17.41 14.8701 17.09C14.7501 16.77 14.5801 16.49 14.3401 16.24C14.0701 15.97 13.9901 15.56 14.1201 15.21C14.2501 14.85 14.5701 14.6 14.9501 14.55C17.8301 14.23 20.5001 13.28 20.5001 8.54C20.5001 7.39 20.0601 6.31 19.2801 5.48C19.0201 5.2 18.9301 4.8 19.0701 4.44C19.3601 3.66 19.4001 2.83 19.2101 2.04C18.7401 2.15 17.8701 2.45 16.5601 3.33C16.3201 3.49 16.0201 3.54 15.7401 3.46C13.6201 2.89 11.3801 2.89 9.2601 3.46C8.9801 3.55 8.6801 3.5 8.4401 3.34C7.1501 2.47 6.2901 2.17 5.8001 2.06C5.6001 2.85 5.6501 3.68 5.9401 4.45C6.0701 4.81 5.9901 5.21 5.7301 5.49C4.9301 6.31999 4.4901 7.41999 4.5001 8.56999C4.5001 13.25 7.1701 14.22 10.0601 14.58C10.4401 14.63 10.7501 14.88 10.8801 15.24C11.0101 15.6 10.9201 16 10.6601 16.27C10.4301 16.51 10.2501 16.79 10.1401 17.11C10.0201 17.43 9.9701 17.75 10.0001 18.09V18.97C10.0001 19.01 10.0001 19.05 10.0001 19.09V22.03C10.0001 22.58 9.5501 23.03 9.0001 23.03C8.4501 23.03 8.0001 22.58 8.0001 22.03V20.28C4.9801 20.74 3.7001 19.12 2.8301 18C2.5401 17.63 2.2801 17.3 2.0201 17.12L1.6101 16.94C1.1301 16.73 0.890103 16.2 1.0601 15.7C1.2301 15.2 1.7501 14.93 2.2501 15.05C2.5101 15.11 2.7401 15.21 2.9601 15.34L8.0201 17.51C8.0501 17.15 8.1401 16.78 8.2701 16.42C8.2801 16.38 8.3001 16.34 8.3101 16.31C5.4901 15.67 2.5101 13.94 2.5101 8.58C2.4901 7.11 2.9801 5.71 3.8801 4.57C3.5401 3.27 3.6301 1.89 4.1701 0.639995C4.2901 0.369995 4.5201 0.159995 4.8001 0.0799954C5.1701 -0.0300046 6.5301 -0.230005 9.1701 1.44C11.3501 0.919995 13.6301 0.919995 15.8101 1.44C18.4601 -0.240005 19.8201 -0.0300046 20.1801 0.0799954C20.4701 0.159995 20.7001 0.369995 20.8101 0.639995C21.3501 1.89 21.4501 3.27 21.1001 4.57C21.9901 5.7 22.4801 7.09 22.4801 8.55C22.4801 14.23 19.0301 15.8 16.6901 16.31C16.7001 16.35 16.7201 16.38 16.7301 16.42C16.9401 17.01 17.0201 17.62 16.9801 18.24V22.03C17.0001 22.58 16.5501 23.03 16.0001 23.03Z" fill="#D9D9D9"/>
</svg>
